<?xml version="1.0" encoding="UTF-8"?>
<svg width="40" height="40" viewBox="0 0 40 40" fill="none" xmlns="http://www.w3.org/2000/svg">
  <rect width="40" height="40" rx="20" fill="#0052FF"/>
  <path d="M20 8C13.3726 8 8 13.3726 8 20C8 26.6274 13.3726 32 20 32C26.6274 32 32 26.6274 32 20C32 13.3726 26.6274 8 20 8ZM23.5 24.5H16.5C15.9477 24.5 15.5 24.0523 15.5 23.5V16.5C15.5 15.9477 15.9477 15.5 16.5 15.5H23.5C24.0523 15.5 24.5 15.9477 24.5 16.5V23.5C24.5 24.0523 24.0523 24.5 23.5 24.5Z" fill="white"/>
  <path d="M20 17.5C18.6193 17.5 17.5 18.6193 17.5 20C17.5 21.3807 18.6193 22.5 20 22.5C21.3807 22.5 22.5 21.3807 22.5 20C22.5 18.6193 21.3807 17.5 20 17.5Z" fill="#0052FF"/>
</svg> 