<?xml version="1.0" encoding="UTF-8"?>
<svg width="318" height="318" viewBox="0 0 318 318" fill="none" xmlns="http://www.w3.org/2000/svg">
  <path d="M274.1 35.5L174.6 109.4L193 65.8L274.1 35.5Z" fill="#E17736" stroke="#E17736" stroke-width="4" stroke-linecap="round" stroke-linejoin="round"/>
  <path d="M43.9 35.5L141.9 109.5L125 65.8L43.9 35.5Z" fill="#E27625" stroke="#E27625" stroke-width="4" stroke-linecap="round" stroke-linejoin="round"/>
  <path d="M235.4 212.3L221.2 247.7L272.3 260.3L284.8 212.4L235.4 212.3Z" fill="#E27625" stroke="#E27625" stroke-width="4" stroke-linecap="round" stroke-linejoin="round"/>
  <path d="M33.2 212.4L45.7 260.3L96.8 247.7L82.6 212.3L33.2 212.4Z" fill="#E27625" stroke="#E27625" stroke-width="4" stroke-linecap="round" stroke-linejoin="round"/>
  <path d="M103.6 153.2L88.8 164.2L136.4 187.5L133.9 145.1L103.6 153.2Z" fill="#E27625" stroke="#E27625" stroke-width="4" stroke-linecap="round" stroke-linejoin="round"/>
  <path d="M214.4 153.2L184 145.1L181.5 187.5L229.1 164.2L214.4 153.2Z" fill="#E27625" stroke="#E27625" stroke-width="4" stroke-linecap="round" stroke-linejoin="round"/>
  <path d="M82.6 212.3L110.3 223.3L105.2 252.2L82.6 212.3Z" fill="#E27625" stroke="#E27625" stroke-width="4" stroke-linecap="round" stroke-linejoin="round"/>
  <path d="M207.7 252.2L202.6 223.3L230.4 212.3L207.7 252.2Z" fill="#E27625" stroke="#E27625" stroke-width="4" stroke-linecap="round" stroke-linejoin="round"/>
  <path d="M229.1 164.2L181.5 187.5L184 145.1L214.4 153.2L229.1 164.2Z" fill="#F5841F" stroke="#F5841F" stroke-width="4" stroke-linecap="round" stroke-linejoin="round"/>
  <path d="M88.8 164.2L103.6 153.2L133.9 145.1L136.4 187.5L88.8 164.2Z" fill="#F5841F" stroke="#F5841F" stroke-width="4" stroke-linecap="round" stroke-linejoin="round"/>
  <path d="M136.4 187.5L110.3 223.3L105.2 252.2L82.6 212.3L88.8 164.2L136.4 187.5Z" fill="#F5841F" stroke="#F5841F" stroke-width="4" stroke-linecap="round" stroke-linejoin="round"/>
  <path d="M181.5 187.5L229.1 164.2L230.4 212.3L207.7 252.2L202.6 223.3L181.5 187.5Z" fill="#F5841F" stroke="#F5841F" stroke-width="4" stroke-linecap="round" stroke-linejoin="round"/>
  <path d="M202.6 223.3L181.5 187.5L184 145.1L136.4 187.5L110.3 223.3L105.2 252.2L207.7 252.2L202.6 223.3Z" fill="#F5841F" stroke="#F5841F" stroke-width="4" stroke-linecap="round" stroke-linejoin="round"/>
  <path d="M141.9 109.4L125 65.8L193 65.8L174.6 109.4L141.9 109.4Z" fill="#F5841F" stroke="#F5841F" stroke-width="4" stroke-linecap="round" stroke-linejoin="round"/>
  <path d="M43.9 35.5L45.7 260.3L33.2 212.4L43.9 35.5Z" fill="#F5841F" stroke="#F5841F" stroke-width="4" stroke-linecap="round" stroke-linejoin="round"/>
  <path d="M274.1 35.5L284.8 212.4L272.3 260.3L274.1 35.5Z" fill="#F5841F" stroke="#F5841F" stroke-width="4" stroke-linecap="round" stroke-linejoin="round"/>
  <path d="M136.4 187.5L141.9 109.4L174.6 109.4L181.5 187.5L202.6 223.3L207.7 252.2L105.2 252.2L110.3 223.3L136.4 187.5Z" fill="#F5841F" stroke="#F5841F" stroke-width="4" stroke-linecap="round" stroke-linejoin="round"/>
  <path d="M141.9 109.4L125 65.8L193 65.8L174.6 109.4L141.9 109.4Z" fill="#F5841F" stroke="#F5841F" stroke-width="4" stroke-linecap="round" stroke-linejoin="round"/>
</svg> 