<?xml version="1.0" encoding="UTF-8"?>
<svg width="300" height="185" viewBox="0 0 300 185" fill="none" xmlns="http://www.w3.org/2000/svg">
  <path d="M61.4 37.9C108.3 -8.7 191.7 -8.7 238.6 37.9L247.1 45.8C248.4 47 248.4 48.9 247.1 50.1L224.4 71.5C223.7 72.2 222.5 72.2 221.8 71.5C191.7 42.3 142.3 42.3 112.2 71.5C111.5 72.2 110.3 72.2 109.6 71.5L86.9 50.1C85.6 48.9 85.6 47 86.9 45.8L61.4 37.9Z" fill="#3B99FC"/>
  <path d="M82.2 58.7C118.4 24.1 181.6 24.1 217.8 58.7L225.1 65.4C226.2 66.4 226.2 68 225.1 69L208.5 84.5C207.9 85.1 206.9 85.1 206.3 84.5C183.3 62.5 144.7 62.5 121.7 84.5C121.1 85.1 120.1 85.1 119.5 84.5L102.9 69C101.8 68 101.8 66.4 102.9 65.4L82.2 58.7Z" fill="#3B99FC"/>
  <path d="M103 79.5C128.5 56.9 171.5 56.9 197 79.5L203.1 85.1C204 85.9 204 87.2 203.1 88L191.5 98.6C191 99.1 190.2 99.1 189.7 98.6C174.9 84.7 153.1 84.7 138.3 98.6C137.8 99.1 137 99.1 136.5 98.6L124.9 88C124 87.2 124 85.9 124.9 85.1L103 79.5Z" fill="#3B99FC"/>
  <path d="M123.8 100.3C138.6 87.7 161.4 87.7 176.2 100.3L181.1 104.7C181.8 105.4 181.8 106.5 181.1 107.2L174.5 113.6C174.1 114 173.4 114 173 113.6C166.5 107.5 157.5 107.5 151 113.6C150.6 114 149.9 114 149.5 113.6L142.9 107.2C142.2 106.5 142.2 105.4 142.9 104.7L123.8 100.3Z" fill="#3B99FC"/>
</svg> 